<?xml version="1.0" encoding="utf-8"?>
<!-- Generator: Adobe Illustrator 25.0.1, SVG Export Plug-In . SVG Version: 6.00 Build 0)  -->
<svg version="1.1" id="图层_1" xmlns="http://www.w3.org/2000/svg" xmlns:xlink="http://www.w3.org/1999/xlink" x="0px" y="0px"
	 viewBox="0 0 800 800" style="enable-background:new 0 0 800 800;" xml:space="preserve">
<style type="text/css">
	.st0{fill:none;}
	.st1{fill:url(#SVGID_1_);}
	.st2{opacity:0.55;fill:url(#SVGID_2_);}
	.st3{opacity:0.75;fill:url(#SVGID_3_);}
	.st4{fill:#FFFFFF;}
	.st5{fill:#19E5C7;}
	.st6{fill:url(#SVGID_4_);}
	.st7{opacity:0.55;fill:url(#SVGID_5_);}
	.st8{opacity:0.75;fill:url(#SVGID_6_);}
	.st9{fill:#292933;}
	.st10{fill:url(#SVGID_7_);}
	.st11{opacity:0.55;fill:url(#SVGID_8_);}
	.st12{opacity:0.75;fill:url(#SVGID_9_);}
	.st13{fill:url(#SVGID_10_);}
	.st14{opacity:0.55;fill:url(#SVGID_11_);}
	.st15{opacity:0.75;fill:url(#SVGID_12_);}
</style>
<g>
	<g>
		<rect y="0" class="st0" width="800" height="800"/>
	</g>
	<g>
		<linearGradient id="SVGID_1_" gradientUnits="userSpaceOnUse" x1="284.7364" y1="517.8983" x2="515.8406" y2="116.2645">
			<stop  offset="0" style="stop-color:#8611ED"/>
			<stop  offset="0.0388" style="stop-color:#7824F0"/>
			<stop  offset="0.1442" style="stop-color:#5753F6"/>
			<stop  offset="0.2376" style="stop-color:#3F75FB"/>
			<stop  offset="0.3146" style="stop-color:#3089FE"/>
			<stop  offset="0.3657" style="stop-color:#2B91FF"/>
			<stop  offset="0.4717" style="stop-color:#1DAEEC"/>
			<stop  offset="0.5937" style="stop-color:#10C7DB"/>
			<stop  offset="0.7201" style="stop-color:#07DACF"/>
			<stop  offset="0.8523" style="stop-color:#02E4C7"/>
			<stop  offset="1" style="stop-color:#00E8C5"/>
		</linearGradient>
		<path class="st1" d="M611.94,260.66v-56.15c0-5.35-2.86-10.3-7.5-12.97L414.97,82.58c-7.04-4.05-15.82,1.03-15.82,9.15v379.74
			c0,2.84-3.05,4.65-5.54,3.28l-33.95-18.62l-0.69-346.34c-0.01-5.76-6.25-9.34-11.23-6.46l-51.86,30.06
			c-4.62,2.68-7.46,7.61-7.46,12.94v273.89l-32.78-18.79V169.72c0-5.75-6.22-9.35-11.21-6.48l-48.86,28.13
			c-4.64,2.67-7.5,7.61-7.5,12.96v227.49c0,5.34,2.85,10.28,7.48,12.95l196.12,113.23c4.63,2.67,10.33,2.67,14.96,0l197.84-114.22
			c4.63-2.67,7.48-7.61,7.48-12.95V331.1c0-8.26-6.7-14.96-14.96-14.96h-87.22c-4.13,0-7.48,3.35-7.48,7.48v47.58
			c0,4.13,3.35,7.48,7.48,7.48h32.89v22.76l-71.61,43.21c-2.49,1.5-5.67-0.29-5.67-3.2V197.89c0-2.89,3.15-4.69,5.64-3.22
			l70.41,41.53c1.14,0.67,1.84,1.9,1.84,3.22v21.23c0,4.13,3.35,7.48,7.48,7.48h53.72C608.59,268.14,611.94,264.79,611.94,260.66z"
			/>
		<linearGradient id="SVGID_2_" gradientUnits="userSpaceOnUse" x1="506.2713" y1="347.3444" x2="586.6234" y2="347.3444">
			<stop  offset="8.073434e-08" style="stop-color:#2799FA"/>
			<stop  offset="0.0221" style="stop-color:#259EFA;stop-opacity:0.9779"/>
			<stop  offset="0.2075" style="stop-color:#18BFFC;stop-opacity:0.7925"/>
			<stop  offset="0.3969" style="stop-color:#0DDAFD;stop-opacity:0.6031"/>
			<stop  offset="0.5898" style="stop-color:#06EDFE;stop-opacity:0.4102"/>
			<stop  offset="0.788" style="stop-color:#01F8FF;stop-opacity:0.212"/>
			<stop  offset="1" style="stop-color:#00FCFF;stop-opacity:0"/>
		</linearGradient>
		<path class="st2" d="M569.61,378.68h-65.16c-1.03,0-1.87-0.84-1.87-1.87v-58.93c0-1.03,0.84-1.87,1.87-1.87h65.16V378.68z"/>
		<linearGradient id="SVGID_3_" gradientUnits="userSpaceOnUse" x1="302.7576" y1="440.2963" x2="346.4066" y2="323.4807">
			<stop  offset="0.0199" style="stop-color:#4429C4"/>
			<stop  offset="0.1359" style="stop-color:#3B46CE;stop-opacity:0.8817"/>
			<stop  offset="0.3052" style="stop-color:#3169DA;stop-opacity:0.7089"/>
			<stop  offset="0.4767" style="stop-color:#2985E4;stop-opacity:0.5339"/>
			<stop  offset="0.6491" style="stop-color:#2398EB;stop-opacity:0.358"/>
			<stop  offset="0.8228" style="stop-color:#1FA4EF;stop-opacity:0.1808"/>
			<stop  offset="1" style="stop-color:#1EA8F0;stop-opacity:0"/>
		</linearGradient>
		<polygon class="st3" points="359.47,310.59 359.65,456.14 288.41,420.33 288.41,310.59 		"/>
	</g>
	<g>
		<path class="st9" d="M262.91,603.25l-22.48,94c-1.28,5.35-6.06,9.12-11.55,9.12h0c-5.47,0-10.23-3.73-11.53-9.04l-17.39-70.51
			l-17.26,70.54c-1.29,5.29-6.03,9-11.47,9h0c-5.43,0-10.17-3.71-11.47-8.99l-23.19-94.11c-0.54-2.19,1.12-4.31,3.38-4.31h13.14
			c1.64,0,3.06,1.15,3.4,2.75l16.45,68.96l15.13-68.94c0.33-1.61,1.76-2.77,3.41-2.77h18.08c1.64,0,3.05,1.14,3.4,2.74l15.22,66.15
			l16.2-66.1c0.33-1.62,1.75-2.79,3.41-2.79h11.73C261.78,598.96,263.44,601.06,262.91,603.25z"/>
		<path class="st9" d="M332.78,700.3c-5.71,4.67-13.49,7.01-23.35,7.01c-10.38,0-18.63-2.98-24.75-8.95
			c-6.12-5.97-9.18-15.18-9.18-27.63v-9.81c0-12.14,2.96-21.25,8.87-27.32c5.92-6.07,14.06-9.11,24.44-9.11
			c10.17,0,18.24,3.07,24.21,9.18c5.97,6.13,8.95,15.21,8.95,27.24v7.26c0,1.92-1.56,3.48-3.48,3.48h-43.84v2.18
			c0,6.02,1.35,10.33,4.05,12.92c2.7,2.6,6.54,3.89,11.52,3.89c0,0,9.64-0.28,12.36-8.18c0.29-0.85,1.03-1.47,1.93-1.47l14.76,0
			c1.12,0,2.04,0.97,1.91,2.08C339.86,694.52,332.78,700.3,332.78,700.3z M298.3,644.88c-2.44,2.59-3.66,6.95-3.66,13.08v0.47h28.02
			v-2.02c0-10.28-4.62-15.41-13.85-15.41C304.24,640.99,300.74,642.29,298.3,644.88z"/>
		<path class="st9" d="M373.29,698.9v6.41c0,0.59-0.48,1.06-1.06,1.06h-16.71c-0.59,0-1.06-0.48-1.06-1.06V600.73
			c0-0.98,0.79-1.77,1.77-1.77h15.75c0.98,0,1.77,0.79,1.77,1.77v32.94c4.46-6.12,10.48-9.18,18.06-9.18
			c8.09,0,14.68,2.75,19.77,8.25c5.08,5.5,7.63,13.86,7.63,25.06v16.04c0,11.21-2.54,19.59-7.63,25.14
			c-5.09,5.55-11.47,8.33-19.15,8.33C384.23,707.3,377.85,704.5,373.29,698.9z M399.91,673.21v-14.63c0-6.02-1.17-10.35-3.5-13
			c-2.34-2.65-5.48-3.97-9.42-3.97c-4.15,0-7.42,1.45-9.81,4.36c-2.39,2.91-3.58,7.11-3.58,12.61v14.63c0,5.5,1.22,9.7,3.66,12.61
			c2.44,2.91,5.84,4.36,10.2,4.36C395.75,690.18,399.91,684.52,399.91,673.21z"/>
		<path class="st9" d="M449.49,679.44c0.66,0,1.17,0.53,1.22,1.19c0.21,3.15,1.26,5.58,3.15,7.29c2.13,1.92,5.21,2.88,9.26,2.88
			c3.84,0,6.87-1.25,9.1-3.74c2.23-2.49,3.35-5.86,3.35-10.12v-2.8c0-4.67-1.19-8.25-3.58-10.74c-2.39-2.49-5.86-3.73-10.43-3.73
			h-4.25c-0.66,0-1.2-0.54-1.2-1.2v-14.88c0-0.66,0.54-1.2,1.2-1.2h4.09c3.94,0,7-1.14,9.18-3.43c2.18-2.28,3.27-5.45,3.27-9.5
			v-2.33c0-3.94-1.01-7.03-3.04-9.26c-2.02-2.23-4.8-3.34-8.33-3.34c-3.63,0-6.44,1.01-8.4,3.03c-1.76,1.81-2.74,5.06-2.92,8.25
			c-0.04,0.64-0.54,1.14-1.18,1.14h-16.31c-0.67,0-1.23-0.56-1.21-1.23c0.24-8.53,2.96-16.12,8.15-20.93
			c5.45-5.03,13-7.55,22.65-7.55c9.44,0,16.86,2.57,22.26,7.7c5.39,5.14,8.09,12.01,8.09,20.63v2.33c0,4.67-1.09,8.85-3.27,12.53
			c-2.18,3.69-5.29,6.62-9.34,8.79c4.67,1.97,8.22,5.09,10.66,9.34c2.44,4.26,3.66,9.39,3.66,15.41v2.96
			c0,6.33-1.35,11.83-4.05,16.5c-2.7,4.67-6.49,8.28-11.36,10.82c-4.88,2.54-10.38,3.81-16.5,3.81c-10.07,0-17.88-2.41-23.43-7.24
			c-5.28-4.59-8.05-11.77-8.31-20.06c-0.02-0.7,0.55-1.28,1.25-1.28L449.49,679.44z"/>
		<path class="st5" d="M566.88,632.99c-0.9,0-1.6-0.71-1.67-1.61c-0.31-4.3-1.88-8.39-4.69-11.25c-3.17-3.22-7.65-4.83-13.46-4.83
			c-6.54,0-11.29,2.02-14.24,6.07c-2.96,4.05-4.44,10.69-4.44,19.93v23.19c0,8.82,1.58,15.18,4.75,19.07
			c3.16,3.89,8.07,5.84,14.71,5.84c6.23,0,10.76-1.61,13.62-4.83c2.85-3.21,4.28-8.09,4.28-14.63v-5.14h-17.77
			c-0.68,0-1.22-0.55-1.22-1.22v-14.36c0-0.68,0.55-1.22,1.22-1.22h35.34c1.3,0,2.36,1.06,2.36,2.36v16.01
			c0,27.5-12.92,41.25-38.76,41.25c-26.05,0-39.07-14.26-39.07-42.81v-24.59c0-28.54,13.13-42.81,39.38-42.81
			c11.73,0,21.07,3.09,28.02,9.26c6.57,5.83,10.03,14.41,10.4,24.52c0.04,0.98-0.78,1.8-1.76,1.8H566.88z"/>
		<path class="st5" d="M606.94,699.05c-5.86-5.5-8.8-14.06-8.8-25.69v-15.1c0-11.52,2.93-20.02,8.8-25.53
			c5.86-5.5,13.88-8.25,24.05-8.25c10.06,0,18,2.75,23.82,8.25c5.81,5.5,8.72,14.01,8.72,25.53v15.1c0,11.62-2.91,20.18-8.72,25.69
			c-5.81,5.5-13.75,8.25-23.82,8.25C620.82,707.3,612.8,704.55,606.94,699.05z M644.38,673.21v-14.63
			c0-11.31-4.46-16.97-13.39-16.97c-9.13,0-13.7,5.66-13.7,16.97v14.63c0,11.31,4.57,16.97,13.7,16.97
			C639.92,690.18,644.38,684.52,644.38,673.21z"/>
	</g>
</g>
</svg>
